<?xml version="1.0" encoding="UTF-8"?><svg id="Calque_1" xmlns="http://www.w3.org/2000/svg" viewBox="0 0 1920 1080"><path d="M1308.41,592.27l-.77-13.09c-.3-5.19-2.52-10.05-6.26-13.68l-11.31-10.97c-2.51-2.43-5.57-4.18-8.9-5.1-2.53-1.08-5.21-1.63-7.99-1.65l-5.23-.03c9.99-42.28,7.97-91.92-7.55-139.13-.92-2.79-1.88-5.54-2.88-8.28,35.21-105.13,40.77-170.99,41-173.88l4.04-50.8-44.53,24.77c-49.94,27.78-109.79,43.34-161.48,52.07-22.05-5.62-45.67-8.45-70.76-8.45-34.64,0-71.61,5.44-110.73,16.26-59.11-5.55-150.22-20.36-221.26-59.88l-44.53-24.77,4.03,50.79c.24,3.05,6.39,75.91,46.85,190.93,3.06,8.71,6.39,17.83,9.99,27.3-59.16,48.76-86.4,98.11-98.86,131.49-14.71,39.41-13.32,66.47-13.11,69.42l1.17,16.66c.24,3.46,2.44,6.49,5.65,7.8,3.22,1.31,6.9,.67,9.49-1.64l12.44-11.11c.61-.54,61.82-53.95,130.07-53.95,2.01,0,4.03,.05,6.03,.14-1.15,1.44-2.13,3.04-2.87,4.79l-7.62,17.85c-2.15,5.04-2.23,10.63-.23,15.72l3.01,7.69c.65,6.67,4.51,12.7,10.37,16.05l9.08,5.18c2.97,1.7,6.37,2.64,9.82,2.73l1.35,.03,.6,.91c3.85,5.83,10.33,9.31,17.32,9.31,1.3,0,2.6-.12,3.87-.37,1,1.97,1.99,3.9,2.95,5.76l-.21,.11c-.42,.22-.82,.47-1.21,.75l-1.43,1.06c-.39,.29-.76,.62-1.1,.97l-.45,.47c-22.8,23.48-28.79,47.79-29.81,64.06-.19,3.1-.22,6.09-.09,8.88,.09,10.17,.76,17.16,.9,18.54l.66,6.22c.39,3.64,2.92,6.69,6.41,7.75l6.02,1.82c8.51,2.59,21.12,4.07,34.58,4.07,12.06,0,41.91-1.29,58.52-13.19l3.75-2.69c2.28-1.64,3.68-4.23,3.8-7.04l.12-3.01c19.52,27.3,40.66,55.14,63.59,83.33l21.19,26.06,21.19-26.06c44.7-54.98,82.67-108.6,114.89-159.54,2.04,.49,4,.96,5.84,1.41,9.66,2.36,16.04,3.91,21.57,3.91,14.27,0,25.59-5.19,33.26-14.97l27.99,36.45c3.96,5.16,9.96,8.12,16.47,8.12,3.99,0,7.88-1.14,11.24-3.31l.05-.03,.25,.1c2.56,1.06,5.24,1.59,8,1.59,.64,0,1.29-.03,1.92-.09h.05s.13-.02,.13-.02l9.52-.99c6.66-.69,12.59-4.59,15.88-10.33l5.15-5.11c3.88-3.87,6.06-9.01,6.12-14.47l.21-17.75c.01-.91-.06-1.8-.16-2.69l11.47-7.33c2.63-1.68,4.22-4.6,4.2-7.72l-.14-28.19c-.02-3.8-2.41-7.2-5.98-8.5l-21.17-7.72,8.08-4.49,1.38,.42c1.99,.61,4.03,.91,6.09,.91,4.74,0,9.37-1.64,13.06-4.62l8.27-6.68c5.21-4.23,8.07-10.71,7.68-17.37Z" style="fill:#fff;"/><g><path d="M1308.41,592.27l-.77-13.09c-.3-5.19-2.52-10.05-6.26-13.68l-11.31-10.97c-2.51-2.43-5.57-4.18-8.9-5.1-2.53-1.08-5.21-1.63-7.99-1.65l-5.23-.03c9.99-42.28,7.97-91.92-7.55-139.13-.92-2.79-1.88-5.54-2.88-8.28,35.21-105.13,40.77-170.99,41-173.88l4.04-50.8-44.53,24.77c-49.94,27.78-109.79,43.34-161.48,52.07-22.05-5.62-45.67-8.45-70.76-8.45-34.64,0-71.61,5.44-110.73,16.26-59.11-5.55-150.22-20.36-221.26-59.88l-44.53-24.77,4.03,50.79c.24,3.05,6.39,75.91,46.85,190.93,3.06,8.71,6.39,17.83,9.99,27.3-59.16,48.76-86.4,98.11-98.86,131.49-14.71,39.41-13.32,66.47-13.11,69.42l1.17,16.66c.24,3.46,2.44,6.49,5.65,7.8,3.22,1.31,6.9,.67,9.49-1.64l12.44-11.11c.61-.54,61.82-53.95,130.07-53.95,2.01,0,4.03,.05,6.03,.14-1.15,1.44-2.13,3.04-2.87,4.79l-7.62,17.85c-2.15,5.04-2.23,10.63-.23,15.72l3.01,7.69c.65,6.67,4.51,12.7,10.37,16.05l9.08,5.18c2.97,1.7,6.37,2.64,9.82,2.73l1.35,.03,.6,.91c3.85,5.83,10.33,9.31,17.32,9.31,1.3,0,2.6-.12,3.87-.37,1,1.97,1.99,3.9,2.95,5.76l-.21,.11c-.42,.22-.82,.47-1.21,.75l-1.43,1.06c-.39,.29-.76,.62-1.1,.97l-.45,.47c-22.8,23.48-28.79,47.79-29.81,64.06-.19,3.1-.22,6.09-.09,8.88,.09,10.17,.76,17.16,.9,18.54l.66,6.22c.39,3.64,2.92,6.69,6.41,7.75l6.02,1.82c8.51,2.59,21.12,4.07,34.58,4.07,12.06,0,41.91-1.29,58.52-13.19l3.75-2.69c2.28-1.64,3.68-4.23,3.8-7.04l.12-3.01c19.52,27.3,40.66,55.14,63.59,83.33l21.19,26.06,21.19-26.06c44.7-54.98,82.67-108.6,114.89-159.54,2.04,.49,4,.96,5.84,1.41,9.66,2.36,16.04,3.91,21.57,3.91,14.27,0,25.59-5.19,33.26-14.97l27.99,36.45c3.96,5.16,9.96,8.12,16.47,8.12,3.99,0,7.88-1.14,11.24-3.31l.05-.03,.25,.1c2.56,1.06,5.24,1.59,8,1.59,.64,0,1.29-.03,1.92-.09h.05s.13-.02,.13-.02l9.52-.99c6.66-.69,12.59-4.59,15.88-10.33l5.15-5.11c3.88-3.87,6.06-9.01,6.12-14.47l.21-17.75c.01-.91-.06-1.8-.16-2.69l11.47-7.33c2.63-1.68,4.22-4.6,4.2-7.72l-.14-28.19c-.02-3.8-2.41-7.2-5.98-8.5l-21.17-7.72,8.08-4.49,1.38,.42c1.99,.61,4.03,.91,6.09,.91,4.74,0,9.37-1.64,13.06-4.62l8.27-6.68c5.21-4.23,8.07-10.71,7.68-17.37Zm-13.37,10.31l-8.28,6.68c-2.08,1.68-4.69,2.6-7.36,2.6-1.16,0-2.31-.17-3.43-.51l-5.07-1.56-18.31,10.18-10.52,5.85,11.26,4.11,23.21,8.47,5.36,1.96h0s.03,5.68,.03,5.68v.02s.09,17.98,.09,17.98l.02,4.51-3.8,2.43-5.94,3.79-7.63,4.87c1.23,1.89,1.92,4.13,1.9,6.49l-.04,3.13-.17,14.62c-.04,3.08-1.26,5.97-3.45,8.15l-6.14,6.1c-1.69,3.71-5.24,6.32-9.43,6.76l-9.51,.99s-.06,0-.08,0c-.36,.03-.73,.05-1.09,.05-1.56,0-3.08-.3-4.52-.89l-4.63-1.93-4.06,2.61c-1.89,1.22-4.08,1.86-6.33,1.86-3.67,0-7.05-1.67-9.28-4.57l-28.8-37.51c-.46-.6-.84-1.25-1.17-1.91-1.53-3.05-1.67-6.59-.35-9.72h-.01c-2.24-2.12-3.48-4.93-3.65-7.82h0s-.55,2.57-.55,2.57c-1.17,5.5-2.93,10.22-5.25,14.18-5.9,10.07-15.49,15.15-28.65,15.15-4.43,0-10.39-1.45-19.41-3.66-.93-.23-1.91-.46-2.89-.7-2.91-.71-6.03-1.45-9.36-2.21h0c-1.7,2.72-3.42,5.44-5.16,8.17-31.67,49.85-68.87,102.25-112.54,155.97l-14.13,17.38-14.13-17.38c-25.5-31.36-48.78-62.27-70.06-92.49-7.64-10.86-15.03-21.62-22.16-32.29l-2.91-4.37h0s-.25-.37-.25-.37l-.68-1.01-3.27,1.69h0s-2.77,1.43-2.77,1.43h0c.53,1.26,1.15,2.6,1.87,4.03,.26,.51,.54,1.04,.82,1.57,.26,.49,.54,.99,.83,1.49,.58,1.01,1.21,2.07,1.89,3.15,.34,.54,.69,1.09,1.06,1.66,.49,.74,.99,1.5,1.53,2.27,1.07,1.55,2.24,3.16,3.53,4.83,.64,.84,1.31,1.69,2.01,2.56,1.23,1.53,2.55,3.1,3.96,4.72,.93,1.06,1.88,2.14,2.9,3.25l.36,.4,1.41,1.54,.86,.94-.13,3.36-.07,1.86-.15,3.67-.29,7.15-.16,4-3.25,2.33-.41,.3-.11,.08c-6.26,4.48-15.14,7.21-23.97,8.88-.44,.08-.88,.16-1.32,.24-1.1,.2-2.21,.38-3.3,.54-.65,.1-1.31,.19-1.95,.28-.72,.1-1.44,.19-2.15,.28-.61,.07-1.21,.14-1.8,.21-8.1,.89-15.14,1.03-18.7,1.03-12.6,0-24.24-1.34-31.93-3.68l-.57-.17-.26-.08-5.2-1.57-.57-5.4-.05-.49-.03-.33s-.03-.25-.07-.67c0-.03,0-.05,0-.09,0,0,0-.01,0-.02-.15-1.62-.48-5.7-.67-11.45-.05-1.73-.09-3.6-.11-5.61-.03-.56-.05-1.14-.06-1.72-.02-.72-.02-1.44-.02-2.19,.01-1.35,.06-2.74,.15-4.17,.21-3.37,.66-7.12,1.48-11.16,.16-.79,.33-1.58,.52-2.39,.07-.29,.14-.58,.21-.87,.22-.89,.45-1.8,.71-2.72,.05-.18,.1-.35,.15-.53,.66-2.31,1.44-4.69,2.37-7.12,4.02-10.53,10.76-22.09,21.82-33.48l.41-.43,.05-.05,.53-.39,.34-.25,.32-.24,.21-.16,.1-.05,.48-.25,7.71-3.99c-2.09-3.96-4.4-8.42-6.79-13.12-.01-.03-.03-.06-.04-.08l3.63-1.9,1-.53,2.62-1.37c3.12,6.12,6.1,11.86,8.67,16.65,.72,1.35,1.42,2.62,2.07,3.81,0,0,0,0,0,0l-3.89,2.01-11.21,5.8-.34,.25c-1.19,1.23-2.33,2.46-3.42,3.69-.54,.62-1.07,1.23-1.59,1.85-1.03,1.23-2.02,2.46-2.95,3.69-.47,.61-.92,1.23-1.36,1.84-1.33,1.83-2.55,3.66-3.67,5.47-.75,1.21-1.45,2.41-2.11,3.6-1.24,2.24-2.33,4.45-3.3,6.62-.64,1.45-1.23,2.87-1.76,4.28-.8,2.11-1.47,4.17-2.04,6.18-.27,.96-.52,1.91-.75,2.84-1.17,4.78-1.75,9.17-1.99,13-.08,1.29-.12,2.56-.13,3.79,0,1.23,.01,2.41,.07,3.54,.02,1.94,.05,3.75,.1,5.41,.02,.56,.04,1.09,.06,1.62,.03,.78,.06,1.53,.1,2.23,.24,4.93,.55,7.86,.55,7.9l.09,.86,.83,.25c.55,.17,1.13,.33,1.73,.48,.66,.17,1.34,.33,2.05,.49,.88,.2,1.81,.38,2.76,.55,.92,.17,1.88,.32,2.86,.46,5.93,.87,12.89,1.34,20.15,1.34,12.33,0,25.49-1.34,35.75-4.31,1.47-.42,2.87-.88,4.21-1.37,3.3-1.21,6.18-2.62,8.46-4.26l.22-.16,.3-.21,.51-12.68-.36-.4c-.83-.9-1.62-1.79-2.4-2.67-.09-.1-.19-.21-.28-.32-.73-.83-1.44-1.66-2.12-2.47-.12-.14-.23-.28-.35-.42-.67-.8-1.32-1.59-1.95-2.37-.1-.13-.2-.25-.3-.37-.64-.8-1.26-1.59-1.86-2.36-.04-.06-.08-.11-.13-.17-.59-.77-1.16-1.53-1.71-2.28-.05-.07-.11-.14-.16-.21-.54-.74-1.06-1.47-1.56-2.2-.09-.12-.17-.25-.26-.37-.48-.7-.95-1.39-1.4-2.07-.08-.13-.16-.25-.25-.37-.45-.68-.88-1.36-1.29-2.02-.06-.09-.11-.18-.17-.27-.41-.66-.8-1.32-1.18-1.96-.02-.04-.04-.07-.07-.11-.38-.65-.74-1.29-1.09-1.92-.06-.1-.12-.21-.17-.31-.33-.6-.64-1.19-.93-1.76-.06-.12-.13-.25-.19-.37-.29-.57-.56-1.13-.83-1.68-.05-.11-.1-.22-.16-.33-.26-.56-.52-1.11-.75-1.65-.03-.06-.05-.12-.08-.18-.22-.51-.43-1.01-.63-1.5-.04-.09-.08-.18-.11-.27-.2-.49-.38-.98-.56-1.45-.04-.12-.09-.24-.13-.35-.17-.46-.32-.91-.47-1.35,0-.02-.02-.05-.03-.07-.03-.09-.06-.18-.09-.28-.14-.44-.28-.87-.4-1.28-.03-.1-.05-.19-.08-.29-.11-.38-.21-.75-.3-1.11-.02-.08-.04-.16-.06-.24l.04-.02-.02-.02,.71-.37,2.05-1.06,.55-.29,8.12-4.2,.31-.16,15.86-8.21h.02s3.42-1.78,3.42-1.78l4.77-2.47h0s.03-.01,.03-.01l4.04-2.09,4.06-2.1h.02s20.41-10.58,20.41-10.58l3.69-1.91,36.7-19,47.59-24.64,.09,.03,.05-.03c26.12,1.7,57.28,6.58,84.43,11.64,1.61,.3,3.2,.6,4.78,.9,1.61,.31,3.2,.61,4.77,.92h0c3.3,.64,6.52,1.28,9.63,1.91,6.78,1.37,13.08,2.69,18.74,3.92,3.37,.73,6.51,1.42,9.37,2.06,6.92,1.55,12.23,2.81,15.37,3.58,1.34,.33,2.28,.57,2.79,.71,.09,.02,.18,.05,.24,.07,0,0,0,0,0,0,0,0-.06,.8-.49,1.93-.06,.16-.13,.32-.2,.49-1.11,2.52-3.98,6.22-11.38,7.11-.24,.03-.5,.05-.78,.06-.03,0-.05,0-.08,0-.92,.04-2.06,.02-3.39-.06-.23-.01-.45-.03-.69-.05,.75,.02,1.48,.04,2.18,.04,.02,0,.04,0,.06,0,0,0,0,0,0,0,0,0,0,0-.01,0,0,0,0,0,0,0-3.92-.32-7.65-.74-11.22-1.23-3.36-.46-6.58-1-9.7-1.58-6.57-1.23-12.69-2.69-18.63-4.23-3.14-.81-6.22-1.64-9.31-2.47-1.53-.41-3.07-.82-4.6-1.23-1.53-.41-3.07-.81-4.61-1.2-16.42-4.21-33.93-7.71-58.82-7.12-12.57,.29-25.27,1.54-37.59,3.34l-18.86,9.76-7.87,4.07-28.42,14.7-23.75,12.29s0,0,0-.01l-5.74,2.97h-.02s-4.07,2.11-4.07,2.11l-4.05,2.09h-.02s0,.01,0,.01l-3.89,2.01-1.56,.81s.01,0,.02,.01l-1.27,.66-1.47,.76c.73,1.1,1.46,2.19,2.2,3.29,.82,1.23,1.64,2.46,2.47,3.7,0,0,0,0-.01,0h0c1.83,2.72,3.67,5.44,5.53,8.16,13.34,19.56,27.51,39.41,42.57,59.5,.16,.22,.33,.43,.49,.65,1.88,2.5,3.77,5.01,5.68,7.52,.47,.62,.94,1.24,1.42,1.86,1.61,2.12,3.23,4.23,4.86,6.36,.64,.83,1.27,1.65,1.91,2.48,1.49,1.93,2.99,3.86,4.49,5.79,.73,.94,1.46,1.88,2.2,2.82,1.45,1.86,2.91,3.71,4.38,5.57,.77,.97,1.53,1.94,2.3,2.92,1.53,1.93,3.07,3.86,4.61,5.79,.7,.88,1.4,1.76,2.11,2.64,2.16,2.69,4.33,5.38,6.52,8.07,.08,.1,.17,.21,.25,.31h0s0,0,0,0c2.63-3.23,5.23-6.46,7.81-9.68,.72-.89,1.43-1.79,2.14-2.68,2-2.51,3.99-5.02,5.96-7.52,.63-.79,1.26-1.59,1.88-2.38,2.52-3.21,5.02-6.41,7.49-9.6,.37-.48,.74-.96,1.11-1.44,2.13-2.75,4.24-5.5,6.33-8.25,.66-.87,1.33-1.74,1.99-2.61,2.06-2.71,4.1-5.42,6.13-8.12,.38-.5,.76-1.01,1.14-1.51,2.41-3.22,4.8-6.44,7.16-9.65,.45-.61,.9-1.22,1.35-1.84,1.95-2.66,3.89-5.31,5.82-7.96,.54-.74,1.08-1.48,1.61-2.22,4.66-6.44,9.23-12.86,13.71-19.25,.42-.6,.84-1.2,1.25-1.79,1.94-2.77,3.85-5.53,5.76-8.28,.34-.5,.69-1,1.03-1.5,4.47-6.49,8.84-12.94,13.13-19.37,.33-.5,.66-.99,.99-1.49,2.04-3.06,4.06-6.12,6.05-9.16,.07-.11,.15-.22,.22-.34,2.18-3.33,4.34-6.66,6.48-9.97,.07-.11,.14-.21,.21-.32,.26-.4,.52-.81,.78-1.21,1.72-2.68,3.43-5.35,5.12-8.02,.07-.11,.14-.21,.2-.32,.17-.28,.35-.55,.52-.82,.61-.97,1.21-1.93,1.82-2.9,.79-1.25,1.57-2.5,2.35-3.75h0s0,0,0,0c.28,.05,.55,.1,.82,.15,.32,.06,.64,.12,.95,.18,.78,.15,1.56,.3,2.32,.45,.28,.06,.57,.11,.85,.17,.95,.19,1.88,.38,2.8,.56,.32,.07,.64,.13,.96,.2,.71,.15,1.41,.3,2.11,.45,.27,.06,.54,.12,.81,.17,.87,.19,1.73,.38,2.57,.56,.31,.07,.63,.14,.94,.21,.64,.14,1.27,.29,1.89,.43,.26,.06,.52,.12,.78,.18,.35,.08,.7,.16,1.05,.24,.42,.1,.85,.2,1.26,.29,.34,.08,.67,.16,1,.24,.51,.12,1.01,.24,1.51,.36,.43,.1,.86,.21,1.28,.31,.54,.13,1.08,.26,1.6,.39,.44,.11,.88,.21,1.32,.32,.14,.04,.29,.07,.43,.1,.31,.08,.62,.15,.93,.23,.89,.22,1.74,.43,2.58,.63,.02,0,.04,.01,.06,.02,1.46,.35,2.83,.68,4.12,.99,.13,.03,.26,.06,.39,.09,.57,.13,1.14,.26,1.68,.38,.04,0,.08,.02,.12,.03,.56,.12,1.09,.24,1.62,.35,.13,.03,.25,.05,.38,.08,.49,.1,.97,.2,1.42,.28,.03,0,.06,.01,.09,.02,.47,.09,.93,.17,1.36,.24,.11,.02,.22,.03,.32,.05,.42,.07,.82,.12,1.21,.17,.02,0,.03,0,.05,0,.39,.05,.76,.08,1.11,.11,.09,0,.17,.01,.26,.02,.35,.02,.68,.04,.99,.04,.91,0,1.8-.03,2.67-.09,1.73-.12,3.35-.35,4.87-.7,1.53-.35,2.95-.82,4.28-1.41,.67-.29,1.31-.62,1.93-.97,1.24-.71,2.38-1.53,3.44-2.48,.53-.47,1.04-.98,1.52-1.51,2.42-2.67,4.31-6.09,5.71-10.29,.43-1.27,.79-2.64,1.13-4.05,.11-.45,.23-.89,.33-1.35,0,0,0,0,0,0-.15-.04-.31-.08-.47-.13-.13-.04-.27-.07-.4-.11-.16-.04-.32-.09-.49-.13-.13-.04-.26-.07-.4-.11-.43-.12-.86-.24-1.31-.37-.35-.1-.7-.2-1.07-.31-.02,0-.05-.01-.07-.02-3.29-.95-7.03-2.08-10.41-2.98,0,0,0,0,0,0-1.31-.35-2.57-.67-3.72-.93,1.58,.23,2.94,.36,4.11,.37,0,0,0,0,0,0,.13,0,.27,0,.4,0,.01,0,.03,0,.04,0,0,0,0,0,0,0,2.96-.05,5.56-.29,7.82-.67,.75-.13,1.47-.26,2.16-.42,.78-.17,1.52-.36,2.21-.56,.35-.1,.68-.2,1.01-.31,.27-.09,.54-.18,.79-.28,.48-.17,.92-.35,1.35-.53,.17-.07,.34-.14,.5-.21,.53-.24,1.02-.48,1.47-.72,.31-.17,.6-.33,.88-.5,.39-.23,.74-.46,1.07-.69,.19-.14,.38-.27,.55-.4,.17-.13,.33-.25,.48-.38,.12-.1,.24-.2,.35-.3,.3-.27,.57-.52,.78-.75,.17-.18,.32-.35,.44-.49,.37-.44,.52-.71,.52-.71v-7.04l1.02,.31,4.89,1.5,79.44,24.36,7.23-4.62,7.38-4.71-.09-17.98h0s-30.06-10.97-30.06-10.97l-29-10.58-6.26-2.28-3.17-1.16c.97-.72,1.93-1.45,2.88-2.21,1.55-1.24,3.07-2.54,4.54-3.89,2.59-2.36,5.06-4.89,7.43-7.57,.1-.11,.19-.22,.29-.33,.43-.49,.86-.99,1.29-1.5,.31-.37,.63-.75,.94-1.12,.14-.17,.28-.34,.41-.51,11.46-14.13,20.1-31.98,25.69-52.07,10.17-36.54,10.24-80.48-1.18-122.96-1.32-4.91-2.79-9.8-4.42-14.66-.41-1.23-.84-2.46-1.27-3.68-2.66-7.53-5.69-14.96-9.11-22.26,0,0,0-.01,0-.02,.02-.06,.04-.13,.06-.19,.14-.42,.28-.84,.42-1.26,.63-1.9,1.24-3.78,1.85-5.65,.61-1.87,1.2-3.73,1.79-5.58h0s0,.01,0,.02c1.32-4.13,2.59-8.2,3.81-12.19,26.46-86.61,30.64-139.17,30.64-139.17,0,0,0,0,0,0h0c-1.41,.79-2.84,1.56-4.27,2.33-.24,.13-.47,.26-.71,.38-1.37,.74-2.75,1.46-4.14,2.18-.26,.13-.51,.26-.77,.4-1.42,.73-2.85,1.46-4.29,2.18-.08,.04-.16,.08-.25,.12-1.41,.7-2.82,1.39-4.24,2.08-.21,.1-.42,.2-.63,.3-1.42,.68-2.85,1.36-4.28,2.02-.27,.12-.54,.25-.8,.37-1.45,.67-2.9,1.33-4.35,1.99-.15,.07-.3,.13-.44,.2-1.42,.64-2.85,1.27-4.28,1.89-.16,.07-.33,.14-.49,.21-1.46,.63-2.93,1.26-4.41,1.88-.27,.11-.54,.23-.82,.34-1.47,.61-2.94,1.22-4.41,1.81-.19,.08-.38,.15-.57,.23-1.48,.6-2.96,1.18-4.44,1.77-.09,.03-.18,.07-.27,.1-1.52,.59-3.03,1.17-4.55,1.75-.26,.1-.51,.19-.77,.29-1.49,.56-2.98,1.11-4.47,1.66-.23,.08-.45,.16-.68,.25-3.11,1.13-6.22,2.23-9.34,3.29-.23,.08-.47,.16-.7,.24-1.51,.51-3.02,1.02-4.54,1.52-.23,.08-.47,.15-.7,.23-1.57,.51-3.13,1.02-4.7,1.52,0,0,0,0-.01,0-1.58,.5-3.17,1-4.75,1.49-.19,.06-.38,.12-.57,.18-1.53,.47-3.07,.93-4.6,1.39-.23,.07-.47,.14-.7,.21-1.56,.46-3.12,.92-4.68,1.37-.08,.02-.16,.04-.23,.07-1.57,.45-3.13,.89-4.7,1.33-.12,.03-.25,.07-.37,.1-1.56,.43-3.12,.86-4.68,1.28-.21,.06-.42,.11-.63,.17-1.56,.42-3.13,.83-4.69,1.24-.11,.03-.21,.06-.32,.08-1.6,.41-3.2,.82-4.8,1.22-.04,0-.07,.02-.11,.03-1.59,.4-3.17,.79-4.75,1.17-.19,.05-.38,.09-.56,.14-1.56,.38-3.12,.75-4.67,1.11-.13,.03-.25,.06-.38,.09-.22,.05-.45,.1-.67,.15-2.98,.69-5.96,1.37-8.91,2.01-.14,.03-.28,.06-.42,.09-1.56,.34-3.12,.67-4.67,1-.13,.03-.26,.05-.39,.08-.02,0-.04,0-.06,.01h0c-.16,.03-.33,.07-.49,.1,0,0,0,0,0,0,0,0,0,0,0,0-3.56,.75-6,1.26-6,1.26,5.08,1.73,10.01,3.76,14.78,6.01,0,0,0,0,.01,0,0,0,0,0,0,0,2.17,1.03,4.32,2.09,6.42,3.21,1.01,.54,2.01,1.08,3.01,1.63,.09,.05,.19,.11,.28,.16,.88,.49,1.76,.99,2.63,1.5,44.34,25.84,72.03,68.78,72.03,68.78,0-.04,0-.09-.01-.13,.1,.16,.21,.31,.31,.46,.27-.9,.54-1.79,.81-2.68,1.16-3.85,2.27-7.63,3.33-11.33,10.95-38.01,17.28-68.14,20.68-86.89-26.22,11.6-53.81,20.67-80.95,27.77-1.07,.28-2.14,.55-3.22,.83-1.5-1.08-3.34-2.24-5.23-3.36-1.99-1.18-4.02-2.31-5.77-3.25h0c1.19-.29,2.37-.58,3.56-.87,.36-.09,.72-.18,1.09-.27,0,0,.01,0,.02,0,.51-.13,1.03-.25,1.54-.38,0,0,0,0,0,0,2.56-.65,5.13-1.31,7.7-1.99,0,0,0,0,.01,0,.36-.09,.72-.19,1.07-.29,.01,0,.02,0,.04,0,2.22-.59,4.45-1.2,6.68-1.82,0,0,.01,0,.02,0,.61-.17,1.21-.34,1.82-.51h.01s0,0,0,0c2.44-.69,4.88-1.39,7.32-2.11,.14-.04,.28-.08,.42-.12,0,0,0,0,0,0,.06-.02,.12-.04,.19-.06,.01,0,.03,0,.04-.01,2.48-.74,4.95-1.49,7.42-2.27,0,0,0,0,.01,0,.64-.2,1.28-.4,1.92-.6,0,0,0,0,.01,0,.94-.3,1.89-.61,2.83-.91,1.36-.44,2.71-.86,4.07-1.31,0,0,.01,0,.02,0,.27-.09,.55-.18,.82-.27,0,0,0,0,0,0,2.53-.84,5.06-1.71,7.59-2.59,0,0,0,0,0,0,.63-.22,1.25-.44,1.88-.66,0,0,0,0,.01,0,1.92-.68,3.83-1.37,5.74-2.07,.17-.06,.35-.12,.52-.19,0,0,0,0,.01,0,.51-.19,1.03-.37,1.54-.57,0,0,0,0,0,0,2.49-.93,4.98-1.88,7.46-2.85,0,0,0,0,0,0,.55-.21,1.09-.43,1.64-.65,0,0,.01,0,.02,0,.31-.12,.62-.25,.93-.37,1.72-.69,3.44-1.38,5.15-2.08,0,0,0,0,.01,0,.62-.25,1.24-.51,1.85-.76,0,0,0,0,0,0,2.46-1.03,4.9-2.07,7.34-3.14,0,0,0,0,0,0,.38-.17,.75-.34,1.13-.5,0,0,0,0,.01,0,2.1-.93,4.19-1.88,6.27-2.84,0,0,0,0,0,0,.65-.3,1.29-.6,1.94-.9,0,0,0,0,0,0,2.42-1.14,4.83-2.29,7.23-3.47h0c-.02,.16-.05,.33-.07,.49-.12,.79-.24,1.6-.36,2.43,0,0,0,.01,0,.02-.05,.35-.11,.7-.16,1.06,0,.03-.01,.06-.02,.1,0,.06-.02,.11-.03,.17-.09,.57-.18,1.14-.27,1.73,0,0,0,0,0,.01-.05,.34-.11,.69-.17,1.04-.03,.18-.06,.35-.09,.53,0,.03-.01,.07-.02,.1-.08,.49-.16,.97-.24,1.46,0,.01,0,.03,0,.04-.03,.21-.07,.42-.1,.62-.07,.42-.14,.84-.21,1.26,0,.02,0,.05-.01,.07-.07,.41-.14,.82-.21,1.23,0,.01,0,.02,0,.03-.13,.75-.26,1.5-.4,2.27,0,.01,0,.03,0,.04-.05,.3-.11,.61-.16,.91,0,.01,0,.03,0,.04-.16,.88-.32,1.77-.48,2.68,0,.01,0,.02,0,.04-.03,.15-.06,.3-.08,.45,0,.02,0,.05-.01,.07-.26,1.44-.54,2.91-.82,4.41-.02,.08-.03,.17-.05,.25-.28,1.45-.56,2.93-.86,4.43,0,.02,0,.03,0,.05-4.46,22.62-11.26,51.36-21.03,84.34-1.14,3.85-2.32,7.76-3.55,11.73-.55,1.77-1.1,3.55-1.67,5.35-.56,1.79-1.14,3.6-1.72,5.41-.13,.4-.25,.8-.38,1.2-.03,.09-.06,.18-.09,.28-.98-1.83-1.99-3.64-3.02-5.44-1.01-1.77-2.05-3.52-3.11-5.27,0,0,0-.01,0-.02-4.96-8.13-10.46-15.99-16.5-23.5-.08-.1-.17-.21-.25-.31-.59-.73-1.18-1.45-1.77-2.17-.07-.08-.14-.17-.21-.25-.99-1.19-2-2.38-3.03-3.55-.38-.43-.75-.86-1.13-1.29-.42-.48-.84-.95-1.27-1.42-.78-.87-1.57-1.73-2.37-2.59-.21-.22-.42-.44-.62-.66-.79-.84-1.58-1.67-2.39-2.5-.16-.16-.32-.33-.47-.49-1.28-1.31-2.59-2.6-3.91-3.88-.54-.52-1.08-1.04-1.62-1.55-.8-.76-1.61-1.51-2.42-2.25-1.45-1.33-2.92-2.64-4.41-3.94-.27-.23-.53-.47-.79-.69,0,0-.14-.12-.4-.35-.33-.29-.87-.74-1.6-1.35-.56-.47-1.23-1.02-2.01-1.65-.92-.75-2-1.6-3.21-2.54-4.6-3.6-9.39-7.03-14.38-10.29-1.13-.75-2.29-1.5-3.49-2.25-1.1-.69-2.19-1.38-3.31-2.05-.12-.07-.24-.15-.36-.22-.03-.02-.06-.04-.09-.05-2.36-1.42-4.82-2.84-7.35-4.23-.03,0-.06,.01-.09,.02-2.08-1.12-4.19-2.22-6.32-3.28-1.81-.9-3.65-1.77-5.5-2.63-.43-.2-.85-.39-1.28-.59,0,0,0,0,0,0,0,0,0,0-.01,0-4.89-2.22-9.94-4.28-15.13-6.18,0,0,0,0,0,0-.7-.26-1.41-.51-2.12-.76-13.23-4.68-27.42-8.29-42.61-10.67-35.59-5.57-76.64-4.36-123.5,5.78-1.22,.26-2.44,.54-3.67,.81-1.8,.41-3.6,.81-5.41,1.25-4.77,1.13-9.6,2.36-14.49,3.67-8.93,2.41-18.06,5.12-27.39,8.16,0,0,0,0,0,0-6.3,2.06-12.69,4.26-19.18,6.62,0,0,0,0,0,0,0,0,0,0,0,0-3,1.09-6.02,2.21-9.06,3.36-.05,.02-.11,.04-.16,.06-2.76,1.05-5.54,2.13-8.33,3.24-.07-.01-.14-.02-.22-.03-.27,.1-1.34,.47-3.17,1.15-.18,.07-.3,.12-.32,.12h0c-4.84,1.82-14.47,5.59-27.94,11.62-18.16,8.12-43.28,20.34-73,37.35-7.28,4.17-14.83,8.62-22.62,13.37,0,.02,.01,.04,.02,.06-1.34,.8-2.68,1.59-4.02,2.4-.25,.15-.51,.31-.76,.46-1.07,.64-2.14,1.29-3.21,1.94-.01,0-.03,.02-.04,.03-.02-.07-.04-.14-.07-.21-.08-.27-.17-.54-.25-.81-.33-1.08-.66-2.15-.99-3.22-.42-1.36-.83-2.7-1.23-4.05,0,0,0,0,0,0-.36-1.19-.72-2.37-1.07-3.55-.55-1.84-1.09-3.66-1.62-5.47-7.11-24.24-12.59-46.13-16.72-64.9,0-.03-.01-.05-.02-.08,0-.02-.01-.05-.02-.08,0-.03-.02-.07-.02-.1-.03-.14-.06-.29-.09-.43,0-.01,0-.03,0-.04-.25-1.13-.49-2.25-.73-3.36,0-.02,0-.03-.01-.05-.06-.29-.12-.57-.18-.85,0-.02,0-.03,0-.05-.22-1.03-.43-2.04-.64-3.05,0,0,0-.02,0-.03-.08-.36-.15-.73-.23-1.09,0-.01,0-.02,0-.04-.06-.3-.12-.58-.18-.88-.14-.67-.28-1.34-.41-1.99,0,0,0,0,0,0-.08-.37-.15-.73-.22-1.1,0,0,0-.01,0-.02-.19-.94-.38-1.88-.56-2.8,0,0,0,0,0,0-.06-.31-.12-.61-.18-.92,0-.02,0-.04-.01-.07,0-.02,0-.03,0-.05-.34-1.73-.67-3.42-.98-5.08,0-.03-.01-.07-.02-.1,0,0,0-.02,0-.02-.04-.2-.08-.4-.11-.6-.03-.15-.06-.31-.09-.46,0,0,0,0,0,0-.12-.65-.24-1.28-.35-1.92-.11-.6-.22-1.19-.33-1.78-.11-.58-.21-1.15-.31-1.72,0,0,0,0,0-.01-.11-.62-.22-1.24-.33-1.85,0,0,0,0,0-.01-.09-.52-.18-1.04-.27-1.55,0,0,0-.02,0-.03-.11-.63-.22-1.26-.32-1.88,0,0,0-.02,0-.03-.03-.18-.06-.36-.09-.54-.05-.28-.09-.56-.14-.84,0,0,0-.02,0-.03-.11-.66-.22-1.31-.32-1.96,0-.02,0-.03,0-.05-.06-.39-.13-.78-.19-1.16,0,0,0-.02,0-.03-.11-.71-.22-1.4-.33-2.08,0-.04-.01-.08-.02-.12-.04-.28-.09-.57-.13-.85,0-.01,0-.02,0-.03-.15-1-.3-1.98-.44-2.93,0,0,0,0,0,0,.01,0,.02,.01,.03,.02,.02,.01,.05,.02,.07,.04,1.66,.82,3.32,1.63,4.99,2.42,.13,.06,.26,.12,.38,.18,.04,.02,.08,.04,.12,.06,.55,.26,1.11,.52,1.67,.78,.07,.03,.13,.06,.2,.09,.93,.43,1.85,.87,2.78,1.3,.27,.12,.54,.24,.8,.36,.07,.03,.15,.07,.22,.1,.62,.28,1.23,.56,1.85,.84,.12,.05,.24,.11,.37,.16,.65,.29,1.29,.59,1.94,.87,.43,.19,.86,.37,1.29,.56,.09,.04,.18,.08,.27,.12,.61,.27,1.21,.53,1.82,.79,.18,.08,.35,.15,.53,.23,.44,.19,.87,.38,1.31,.57,.65,.28,1.3,.55,1.96,.83,.06,.02,.11,.05,.17,.07,.57,.24,1.13,.48,1.7,.71,.23,.1,.46,.19,.69,.28,.25,.1,.5,.21,.74,.31,.79,.33,1.59,.65,2.38,.97,.11,.05,.23,.09,.34,.14,.3,.12,.6,.25,.91,.37,.2,.08,.4,.16,.6,.25,.29,.11,.57,.22,.86,.34,.07,.03,.13,.05,.2,.08,.8,.32,1.61,.64,2.42,.95,.33,.13,.66,.26,.99,.38,.41,.16,.82,.33,1.24,.49,.33,.13,.67,.25,1,.38,.25,.09,.5,.19,.74,.28,.46,.17,.91,.35,1.37,.52,.64,.24,1.28,.48,1.92,.72,.25,.09,.49,.19,.74,.28,.36,.14,.73,.27,1.09,.41,.33,.12,.67,.24,1,.36,.2,.07,.4,.15,.6,.22,.98,.36,1.96,.71,2.93,1.06,.07,.02,.14,.05,.21,.07,.38,.14,.76,.28,1.14,.41,.1,.04,.21,.07,.31,.11,.23,.08,.46,.16,.7,.24,.03,.01,.06,.02,.09,.03,.98,.34,1.96,.68,2.94,1.02,.28,.1,.55,.19,.83,.29,.35,.12,.69,.24,1.04,.36,.3,.1,.61,.21,.91,.31,.35,.12,.7,.23,1.04,.35,.53,.18,1.06,.36,1.59,.53,.74,.25,1.48,.49,2.22,.74,.06,.02,.11,.04,.17,.06,.26,.08,.51,.17,.77,.26,.51,.17,1.02,.32,1.52,.49,.25,.08,.51,.16,.76,.25,.79,.25,1.59,.51,2.38,.76,.17,.05,.34,.11,.51,.16,.21,.07,.43,.14,.64,.21,.54,.17,1.08,.33,1.62,.5,.06,.02,.11,.03,.17,.05,.05,.02,.11,.03,.16,.05,.77,.24,1.54,.48,2.31,.71,.36,.11,.73,.22,1.09,.33,.17,.05,.33,.1,.5,.15,.65,.2,1.29,.39,1.94,.58,.05,.01,.09,.03,.14,.04,.58,.17,1.17,.35,1.75,.52,.57,.17,1.14,.33,1.71,.5,.12,.03,.24,.07,.36,.1,.67,.2,1.35,.39,2.02,.58,.04,.01,.09,.02,.13,.04,.4,.11,.8,.23,1.2,.35,.81,.23,1.61,.45,2.42,.68,.09,.02,.18,.05,.26,.07,.65,.18,1.3,.36,1.94,.54,.01,0,.03,0,.04,.01,.25,.07,.5,.14,.74,.21,1.14,.31,2.28,.62,3.42,.92,.16,.04,.32,.09,.48,.13,.39,.1,.77,.21,1.16,.31,.03,0,.06,.02,.09,.02,.08,.02,.17,.05,.25,.07,.44,.12,.87,.23,1.31,.34,1.36,.36,2.73,.72,4.09,1.06,.03,0,.06,.01,.09,.02,.07,.02,.14,.04,.21,.05,.17,.04,.33,.08,.5,.12,.23,.06,.46,.12,.7,.17,.16,.04,.33,.08,.49,.12,1.13,.29,2.27,.57,3.4,.85,.17,.04,.34,.08,.52,.13,.11,.03,.21,.05,.32,.08,.56,.14,1.11,.27,1.66,.4,.08,.02,.16,.04,.23,.06,.88,.21,1.75,.43,2.63,.64,.33,.08,.66,.15,.99,.23,.13,.03,.26,.06,.39,.09,.56,.13,1.13,.26,1.69,.4,.17,.04,.34,.08,.52,.12,.59,.14,1.18,.28,1.76,.41,.53,.12,1.06,.24,1.58,.36,.11,.03,.23,.05,.34,.08,.53,.12,1.05,.24,1.58,.36,.24,.05,.48,.11,.72,.16,.37,.08,.74,.17,1.11,.25,.79,.18,1.59,.35,2.38,.52,.03,0,.06,.01,.1,.02,.06,.01,.11,.03,.17,.04,.41,.09,.83,.18,1.24,.27,.3,.07,.6,.13,.9,.19,.17,.04,.35,.08,.52,.11,.79,.17,1.58,.34,2.37,.5,.23,.05,.46,.1,.69,.15,.41,.09,.83,.18,1.24,.26,.33,.07,.65,.13,.97,.2,.01,0,.03,0,.04,0,.77,.16,1.54,.32,2.31,.47,.47,.1,.94,.19,1.41,.28,.3,.06,.61,.13,.92,.19,.36,.07,.71,.14,1.07,.21,.24,.05,.47,.09,.71,.14,.37,.07,.74,.15,1.12,.22,.83,.16,1.66,.32,2.49,.48,.09,.02,.18,.04,.27,.05,.37,.07,.74,.14,1.11,.21,.27,.05,.53,.1,.8,.15,.17,.03,.34,.07,.51,.1,.96,.18,1.91,.36,2.87,.53,.15,.03,.29,.05,.44,.08,.37,.07,.74,.14,1.11,.21,.11,.02,.22,.04,.33,.06,.12,.02,.23,.04,.34,.06,.02,0,.03,0,.05,0,0,0,0,0,.01,0,.38,.07,.75,.13,1.13,.2h0s-7.87,3.24-7.87,3.24l-7.65,3.14c-.21-.04-.42-.08-.62-.12-39.41-7.88-81.89-19.63-121.4-37.13,3.47,19.14,9.99,50.12,21.35,89.25,.83,2.87,1.7,5.79,2.59,8.75,.53-.3,3.67-2.06,8.67-4.81,0,0,0,0,0,0,21.01-11.57,74.82-40.7,105.94-52.83-.03,0-.06-.01-.09-.02l7.91-3.25,.85-.35,7.3-3h0s0,0,0,0l.64-.26c4.39-1.62,10.33-3.78,17.17-6.17,0,0,0,0,0,0-.57-.08-1.16-.16-1.74-.25h0c-6-.84-12.15-1.76-18.43-2.78-6.36-1.04-12.84-2.17-19.43-3.41-.06-.01-.13-.02-.19-.04-4.54-.86-9.14-1.77-13.77-2.74-.06-.01-.12-.03-.18-.04-2.24-.47-4.5-.95-6.76-1.45-.11-.02-.22-.05-.33-.07-4.61-1.01-9.25-2.08-13.91-3.21-.15-.04-.29-.07-.44-.11-2.25-.55-4.51-1.11-6.78-1.68-.09-.02-.18-.05-.28-.07-2.32-.59-4.65-1.2-6.99-1.82-.11-.03-.22-.06-.33-.09-2.24-.6-4.49-1.21-6.74-1.84-.18-.05-.35-.1-.53-.15-4.66-1.31-9.33-2.68-13.99-4.11-.18-.06-.36-.11-.55-.17-2.22-.68-4.44-1.38-6.65-2.1-.15-.05-.31-.1-.46-.15-2.31-.75-4.63-1.51-6.93-2.3-.1-.03-.2-.07-.3-.1-2.23-.76-4.46-1.53-6.68-2.32-.2-.07-.41-.15-.61-.22-2.24-.8-4.48-1.62-6.72-2.45-.08-.03-.15-.06-.23-.08-2.29-.85-4.57-1.73-6.84-2.62-.17-.07-.34-.14-.52-.2-2.17-.85-4.32-1.72-6.48-2.6-.18-.07-.36-.15-.53-.22-2.26-.93-4.51-1.88-6.76-2.85-.06-.02-.11-.05-.17-.07-2.2-.95-4.39-1.92-6.57-2.91-.2-.09-.39-.18-.59-.27-2.14-.97-4.27-1.96-6.38-2.97-.11-.05-.22-.11-.34-.16-2.19-1.05-4.38-2.12-6.54-3.2-.14-.07-.28-.14-.41-.21-2.07-1.04-4.14-2.11-6.19-3.18-.18-.1-.36-.19-.54-.29-2.15-1.14-4.29-2.29-6.4-3.47h0s0,0,0,0c0,0,3.9,49.13,28.07,130.65,.88,2.96,1.78,5.96,2.71,9.01,0,0,0,0,0,0,0,0,0,0,.01,0,.41,1.34,.83,2.69,1.25,4.04,.43,1.4,.87,2.81,1.32,4.22,0,0,0,0,0,0,.06,.2,.13,.4,.19,.6,.18,.58,.37,1.17,.56,1.76,.3,.96,.61,1.92,.92,2.89,.11,.34,.22,.69,.33,1.03,.12,.39,.25,.78,.38,1.16,.26,.81,.52,1.62,.79,2.44,0,0,0,0,0,0,.62,1.91,1.24,3.82,1.88,5.77,.47,1.41,.94,2.83,1.42,4.26,0,0,0,0,0,0,2.6-1.85,5.18-3.67,7.76-5.48,0,0,0,0,0,0,1.3-.91,2.6-1.81,3.9-2.71,1.3-.91,2.61-1.8,3.91-2.7,51.2-35.2,98.33-61.2,141.5-79.44,2.83-1.2,5.65-2.37,8.45-3.5,3.04-1.23,6.05-2.41,9.05-3.56,0,0,0,0,0,0,6.59-2.53,13.09-4.87,19.49-7.04,19.63-6.64,38.36-11.59,56.19-15.02,30.33-5.83,58.08-7.23,83.29-5.02,19.01,1.67,36.58,5.39,52.73,10.83,5.49,1.85,10.82,3.9,15.99,6.14,0,0,0,0,0,0,2.38,1.03,4.73,2.1,7.05,3.21,2.21,1.06,4.38,2.15,6.53,3.28,36.54,19.16,63.97,48.02,82.71,80.89,1.03,1.81,2.04,3.64,3.02,5.47,1.01,1.88,1.98,3.77,2.93,5.68h0c1.98,3.97,3.84,8,5.58,12.06,3.83,8.93,7.09,18.04,9.77,27.24,1.51,5.17,2.84,10.37,3.99,15.58,16.36,74.19-3.76,150.11-56.68,176.6-.68,.34-1.36,.67-2.05,1-1.03,.48-2.07,.94-3.12,1.38,0,0,0,0,0,0-4.65,1.97-9.54,3.58-14.66,4.79-.32,.08-.65,.14-.97,.22-.46,.1-.92,.21-1.39,.31-2.29,.48-4.63,.88-7.01,1.2-2.67,.36-5.39,.62-8.17,.77h-.02c-.9,.04-1.8,.08-2.71,.11-1.58,.05-3.18,.06-4.8,.04-4.28-.06-8.69-.36-13.22-.91-.68-.08-1.37-.17-2.06-.26-1.87-.26-3.75-.55-5.66-.9h0c-.45-.07-.91-.17-1.36-.25-.55-.1-1.1-.21-1.65-.32-.03,0-.05,0-.08-.01-.31-.06-.61-.11-.92-.18-.25-.05-.5-.11-.75-.17,0,0,0,0,0,0-.62-.13-1.24-.28-1.86-.42-.2-.05-.4-.09-.6-.13-.48-.11-.95-.2-1.43-.32-1.51-.36-3.04-.76-4.57-1.17h0s0,0,0-.01c-2.52-.68-5.07-1.43-7.65-2.26-1.04-.33-2.08-.68-3.13-1.03-1.37-.47-2.72-.93-4.02-1.39-1.3-.46-2.57-.9-3.8-1.34-11.73-4.19-19.63-7.41-19.64-7.42h0s.03,.02,.06,.04c-.07-.03-.11-.04-.11-.04,0,0,11.43,8.17,25.17,15.27,3.19,1.65,6.34,3.14,9.45,4.53,1.41,.63,2.82,1.23,4.21,1.81,1.44,.59,2.86,1.16,4.28,1.7,3.01,1.14,5.98,2.17,8.9,3.06,4.95,1.52,9.78,2.69,14.49,3.53,1.32,.24,2.63,.45,3.94,.64,3.38,.48,6.69,.79,9.93,.94,1.29,.06,2.57,.1,3.84,.11,.34,.96,.97,2.39,2.11,4.4,1.19,2.09,2.95,4.81,5.56,8.26-3.3,3.12-10.17,3.36-19.77,1.63-2.87-.52-5.99-1.22-9.32-2.07-5.41-1.38-11.39-3.16-17.87-5.24-2.9-.93-5.89-1.92-8.97-2.96h0c-1.45-.49-2.92-.99-4.41-1.51-1.44-.5-2.9-1-4.38-1.52-20.22-7.05-43.58-15.77-68.03-23.95-84.38-28.23-164.73,11.31-135.94,51.27l-16.86,8.73-.58,.3c-.88-1.63-1.72-3.37-2.5-5.2-2.99-7.07-5.06-15.37-5.36-22.82-.18-4.4,.25-8.5,1.47-11.89-3.14,1.24-5.65,8.16-7.54,16.1-.32,1.36-.63,2.75-.92,4.15-.16,.78-.32,1.56-.47,2.35-.44,2.32-.84,4.62-1.18,6.8h0c-1.19,7.53-1.78,13.54-1.78,13.54-.16,.08-.35,.14-.55,.17,0,0-.02,0-.02,0-2.76,.45-9.65-3.47-16.97-11.24-1.97-2.09-3.97-4.45-5.92-7.09l-7.1,3.89-7.03,3.85-.8,.44h0s.02,.03,.03,.05l-.16,.08-2.62,1.37-.85,.44-3.63,1.9h0l-4.33,2.27c-1.24,.43-2.54,.68-3.85,.68-.18,0-.36-.03-.54-.03-3.73-.17-7.15-2.08-9.22-5.21l-3.23-4.88-6.07-.13c-1.94-.05-3.86-.58-5.54-1.54l-9.08-5.18c-3.67-2.09-5.88-6.03-5.9-10.14l-3.53-9.04c-1.13-2.87-1.08-6.02,.13-8.86l7.61-17.84c.58-1.35,1.39-2.56,2.38-3.57,1.8-1.85,4.19-3.07,6.8-3.42l1.77,.19h0s4.27,.46,4.27,.46l.6,.06,4.86,.53h0s1.08,.12,1.08,.12l4.44,.48,5.14,.56,16.92,2.14h.01s.1,.01,.1,.01c-.1-2.96-.06-6,.12-9.12,.16-2.68,.43-5.43,.83-8.23,0,0,0,0,0,0,.34-2.38,.75-4.81,1.27-7.28,.46-2.19,.99-4.41,1.6-6.67,.58-2.12,1.22-4.26,1.94-6.44-1.32-2.16-4.66-5.13-9.41-7.87-2.02-1.17-4.3-2.29-6.8-3.29-1.93-.78-4-1.48-6.16-2.07,0,0,0,0,0,0-3.5-.96-7.28-1.62-11.24-1.84,0,0,0,0-.01,0-.06,0-.13,0-.19-.01-.68-.04-1.36-.05-2.04-.08-6.13-.25-12.11-.22-17.95,.07-3.31,.16-6.58,.4-9.79,.72-77.4,7.71-126.13,58.71-126.13,58.71,0,0,5.06-67.4,86.32-148.09,2.29-2.28,4.64-4.56,7.06-6.86,4.56-4.34,9.35-8.71,14.37-13.1,0,0,0,0,.01-.01,2.39-2.09,4.82-4.19,7.32-6.3,0,0,0,0,0,0,1.21-1.02,2.45-2.05,3.69-3.07,1.22-1.01,2.46-2.02,3.7-3.04,6.52-5.3,13.39-10.62,20.63-15.95,.76-.47,1.48-.91,2.18-1.34,5.18-3.18,8.5-5.13,8.5-5.13-14.41,7.95-25.68,12.24-34.39,14.36-1.59,.39-3.08,.7-4.5,.95-1.65,.29-3.19,.5-4.62,.64,0,0,0,0,0,0-4.06,.39-7.28,.22-9.78-.19,0,0-.01,0-.02,0,.49,1.31,.99,2.64,1.49,3.95,.12,.31,.23,.62,.35,.92,.85,2.24,1.7,4.49,2.57,6.75,.29,.75,.57,1.49,.86,2.24,.16,.41,.31,.81,.47,1.21,0,0,0,0,0,0,.1-.07,.21-.15,.31-.22-.1,.08-.2,.15-.31,.23,0,0,0,0-.01,0-2.03,1.5-4.03,3-6,4.51-.6,.46-1.21,.92-1.8,1.38-2.45,1.9-4.85,3.8-7.2,5.69-2.52,2.03-4.97,4.07-7.38,6.1-107.75,91.25-101.3,182.71-101.3,182.71h0s49.16-43.91,111.98-55.54l-.11-.04c.88-.14,1.73-.28,2.58-.41,6.89-1.17,13.93-1.95,21.09-2.24,11.2-.58,17.95,.18,20.7,.62,.77,.08,1.55,.18,2.33,.27,1.83,.22,3.66,.47,5.49,.76,.08,.01,.16,.02,.25,.04,0,0,0,0,0,.01,.04,.07,.07,.14,.11,.22,.76,1.45,2.28,4.34,4.2,8.06,.06,.11,.11,.21,.17,.32l-4.88-.53-.76-.08-.89-.1-3.24-.35s-.01-.02-.01-.03c-5.71-.74-11.56-1.11-17.44-1.11h0c-38.82,0-75.09,16.12-100.41,31.11-2.62,1.55-5.12,3.09-7.5,4.59-1.07,.68-2.11,1.35-3.13,2.01-.67,.44-1.33,.87-1.98,1.3-1.15,.76-2.26,1.51-3.34,2.25s-2.11,1.45-3.11,2.16c-1.17,.82-2.28,1.62-3.34,2.39-.35,.26-.7,.51-1.04,.76-.99,.73-1.93,1.43-2.82,2.1-1.2,.91-2.29,1.75-3.27,2.52-1.07,.84-2.01,1.59-2.82,2.25-.7,.57-1.29,1.06-1.77,1.46-.16,.13-.31,.26-.44,.37-.7,.59-1.1,.94-1.14,.98l-7.56,6.75-4.9,4.38h0s-1.06-15.12-1.06-15.12l-.11-1.54s0-.12-.01-.23c-.16-2.8-1.19-28.49,12.57-65.38,3.96-10.6,9.43-22.8,16.99-36.07,1.51-2.65,3.11-5.35,4.79-8.09,1.56-2.53,3.2-5.1,4.91-7.69,1.72-2.6,3.51-5.22,5.39-7.87,.93-1.31,1.87-2.62,2.84-3.94,1.93-2.64,3.95-5.3,6.05-7.99,1.05-1.34,2.12-2.69,3.22-4.04,2.19-2.7,4.46-5.43,6.83-8.16,2.37-2.74,4.82-5.49,7.37-8.26,2.55-2.77,5.2-5.55,7.94-8.33,8.23-8.36,17.35-16.81,27.44-25.25,2.42-2.02,4.89-4.04,7.42-6.06,0,0,0,0,0,0-4.48-11.62-8.56-22.72-12.26-33.23-2.58-7.32-5.01-14.47-7.31-21.44-33.51-101.41-38.82-164.39-39.05-167.2l-2.69-33.86,29.69,16.51c64.13,35.67,144.1,51.57,203.24,58.65,8.21,.98,16.01,1.8,23.32,2.47h0c9.49-2.65,18.84-4.98,28.07-6.99,28.58-6.22,55.87-9.37,81.8-9.37,1.7,0,3.39,.02,5.07,.04,1.77,.03,3.54,.07,5.3,.13,.51,.02,1.01,.04,1.52,.06,6.55,.25,12.99,.7,19.32,1.36,.71,.07,1.42,.15,2.12,.23,2.87,.32,5.72,.68,8.55,1.09,.9,.13,1.8,.27,2.7,.41,4.43,.68,8.82,1.46,13.13,2.36,1.65,.34,3.3,.7,4.94,1.08,2.56,.58,5.08,1.22,7.6,1.88,6.46-1.07,13.05-2.26,19.73-3.55,48.18-9.33,101.38-24.65,146.68-49.85l29.69-16.51-2.69,33.87c-.22,2.75-5.34,63.39-37.16,161.4-1.42,4.38-2.9,8.83-4.43,13.36,1.37,3.61,2.67,7.26,3.89,10.96,.32,.99,.64,1.98,.95,2.97,5.66,17.92,9.29,36.16,11.02,54.13,.29,3.04,.53,6.08,.72,9.1,.1,1.6,.18,3.2,.25,4.8,.09,2.23,.16,4.46,.19,6.68,0,.11,0,.21,0,.32,.09,6.39-.06,12.71-.45,18.94-.23,3.74-.55,7.44-.96,11.11-.13,1.22-.28,2.44-.43,3.65-.19,1.52-.4,3.03-.62,4.53-.66,4.5-1.46,8.94-2.38,13.3-.49,2.32-1.02,4.63-1.59,6.9-.87,3.5-1.82,6.95-2.86,10.33t0,0c1.69-.93,3.59-1.45,5.56-1.45,.06,0,.11,0,.17,0l4.25,.03,7.55,.05c1.77,.01,3.48,.41,5.04,1.17,2.09,.47,4.02,1.5,5.59,3.02l11.31,10.97c2.11,2.05,3.36,4.79,3.53,7.71l.77,13.09c.22,3.75-1.39,7.4-4.32,9.78Zm-392.97,52.83c-2.83-4.43-2.93-9.06-.82-13.6l13.92,4.26,7-11.03,9.29,5.86,4.87-8.69,13.82-3.23-14.53,.7-5.54,5.43-9.47-6.12-7.4,11.17-8.29-3.87c18.3-21.02,81.8-36.93,133.05-14.49,16.6,7.27,36.74,15.69,55.62,22.96,1.45,.56,2.88,1.1,4.31,1.65,1.46,.55,2.9,1.1,4.34,1.63,0,0,0,0,0,0,3,1.12,5.94,2.2,8.82,3.23,6.26,2.24,12.17,4.24,17.51,5.9,3.23,1,6.26,1.89,9.02,2.62h0c-3.09-.65-6.24-1.29-9.44-1.91-6.17-1.21-12.51-2.37-18.95-3.49-3.24-.56-6.5-1.11-9.78-1.64h0c-1.61-.26-3.23-.52-4.85-.78-1.62-.26-3.23-.51-4.85-.76-30.05-4.63-60.63-8.13-84.64-10.09l-.27-11.16-.12,.06-19.74-2.39-2.84-7.76-45.74,23.68c-16.62,3.26-27.66,8.08-34.31,11.87Zm-31.09,27.46l4.05-2.12,3.4-1.78,.64-.34,46.76-24.46,24.45-12.79,29.29-15.32,.36,1.04-25.82,13.87-18.94,10.17-4.85,2.61,7.57-3.37,22.33-9.93,19.92-8.86-13.2,8.49-7.93,5.1,12.41-5.25,17.26-7.3,2.61,.33-13.58,6.89-10.12,5.13-80.2,40.7-2.87,1.46-4.08,2.07-4.09,2.07h0s-8.23,4.18-8.23,4.18h-.01s-16.23,8.24-16.23,8.24l-.33,.17-7.36,3.74-.47,.23h-.01s-.17,.52-.17,.52c-2.95,8.87-.24,19.11,4.23,28.39-13.73,2.31-31.36,2.71-43.89,.97,6.44-19.65,19.15-29.77,19.2-29.82l13.48-7.05,2.04-1.07,8.09-4.23,16.09-8.42h.01s8.17-4.28,8.17-4.28h0Zm-5.11,80.27c-.5,.31-1.05,.6-1.62,.89-3.33,1.66-7.76,2.93-12.77,3.86-1.78,.33-3.65,.62-5.55,.87-14.57,1.91-31.98,1.52-41.5-.04-1.52-.25-2.84-.52-3.91-.83-.11-1.35-.18-2.68-.23-3.99,7.3,1.11,17.18,1.58,27.24,1.37,13.72-.29,27.77-1.83,36.09-4.72,.91,1.08,1.68,1.96,2.25,2.59Zm-9.61-12.14c-15.34,4.03-40.5,5-55.62,2.12,.18-1.72,.4-3.39,.68-5.02,7.22,.99,16.37,1.37,25.63,1.18,9.46-.2,18.98-.99,26.59-2.33,.91,1.41,1.82,2.76,2.73,4.05Zm198.09-27.74c-1.51,2.23-3.03,4.46-4.56,6.7-.97,1.41-1.94,2.82-2.91,4.24-1.34,1.95-2.69,3.9-4.05,5.86-1.58,2.27-3.18,4.55-4.78,6.82-2.98,4.23-5.98,8.47-9.04,12.73-1.89,2.63-3.8,5.27-5.73,7.91-.43,.59-.85,1.18-1.28,1.78-.03,.04-.06,.08-.09,.12,0,0,0,.01-.01,.02-.25,.34-.49,.68-.74,1.01,0,0-.01,.02-.02,.03-1.15,1.57-2.32,3.15-3.48,4.73-.87,1.18-1.72,2.35-2.59,3.53,0,0,0,0,0,.01-.39,.52-.77,1.04-1.16,1.56,0,0,0,0,0,0-2.12,2.86-4.26,5.72-6.42,8.59-.11,.15-.23,.3-.34,.46-.06,.08-.13,.17-.19,.25,0,0,0,0,0,0-1.56,2.07-3.14,4.14-4.72,6.22-.82,1.08-1.63,2.16-2.46,3.24,0,0,0,0,0,0-.45,.59-.9,1.17-1.35,1.76,0,0,0,0-.01,.01-.15,.19-.29,.38-.44,.57-1.72,2.25-3.46,4.49-5.2,6.75,0,0,0,0,0,0-.73,.95-1.47,1.89-2.21,2.84h0c-1.72,2.21-3.46,4.43-5.21,6.65,0,0,0,0,0,0-.71,.9-1.42,1.8-2.13,2.7-.01,.01-.02,.03-.03,.04-2.4,3.03-4.81,6.07-7.25,9.11,0,0,0,0,0,0,0,0,0,.01-.01,.02-.43-.53-.84-1.06-1.27-1.59-1.71-2.14-3.42-4.28-5.11-6.41,0,0-.01-.02-.02-.03-.37-.47-.73-.93-1.1-1.4-.14-.18-.29-.36-.43-.55-1.32-1.67-2.63-3.33-3.93-4.99-.29-.37-.58-.73-.86-1.1,0,0-.02-.02-.02-.03-.24-.31-.48-.62-.72-.93-.07-.08-.13-.17-.19-.25-1.77-2.27-3.53-4.53-5.27-6.79-.03-.04-.06-.08-.09-.12,0-.01-.02-.02-.03-.04-.03-.04-.05-.07-.08-.11-.04-.05-.08-.1-.12-.15-.14-.18-.27-.36-.41-.54-19.65-25.48-37.81-50.58-54.61-75.17-1.82-2.67-3.63-5.33-5.42-7.98-.42-.62-.84-1.23-1.25-1.85l4.05-2.09,4.07-2.1c.76,1.12,1.51,2.24,2.27,3.37,1.77,2.61,3.55,5.22,5.35,7.84,19.79,28.83,41.46,58.37,65.21,88.39,32.95-41.66,61.91-82.39,87.37-121.57,1.87-2.88,3.72-5.74,5.55-8.61h0c.82-1.28,1.64-2.55,2.45-3.83,.82-1.29,1.63-2.57,2.44-3.85,0,0,0,0,0,0,.29,.03,.58,.07,.86,.11,.32,.04,.63,.08,.95,.12,1.07,.13,2.13,.27,3.17,.41,.1,.01,.21,.03,.31,.04,.32,.04,.63,.09,.94,.13,.93,.13,1.85,.26,2.76,.4,.3,.04,.6,.09,.9,.13-.8,1.27-1.59,2.53-2.39,3.8-.79,1.25-1.6,2.51-2.4,3.77,0,0,0,0,0,0-1.79,2.81-3.6,5.63-5.42,8.46-5.54,8.59-11.26,17.26-17.15,25.99-.63,.94-1.26,1.87-1.9,2.81Zm133.65-92.31l25.29,7.22-20.02-9.67c.56-.28,1.11-.57,1.66-.87l55.26,16.88-50.5-19.64c.58-.36,1.15-.73,1.72-1.1,0,0,0,0,0,0l9.66,3.43,26.41,9.39,31.6,11.23,.51,10.54-85.54-25.87c1.34-.48,2.66-1,3.97-1.55Z" style="fill:#0a0a0a;"/><path d="M1256.29,681.69s-.08-.04-.12-.05l-69.34-20.65c-.43-.13-.86-.19-1.29-.19-1.59,0-3.12,.84-3.95,2.28-1.05,1.83-.71,4.14,.82,5.58l.86,.81,4.64,4.38c-1.31,.12-2.55,.81-3.33,1.94-1.13,1.63-1.08,3.8,.13,5.37l28.8,37.51c.23,.29,.48,.55,.76,.78,.82,.66,1.83,1.01,2.85,1.01,.84,0,1.7-.23,2.46-.72l7.22-4.64,8.09,3.37c.56,.23,1.17,.35,1.78,.35,.15,0,.29,0,.44-.02l9.51-.99c1.98-.2,3.58-1.67,3.98-3.58l7.29-7.24c.84-.84,1.33-1.98,1.34-3.17l.15-12.41,.06-5.33c.02-1.99-1.25-3.75-3.13-4.37Zm-33.89,5.74l-12.21-2.43-3.9-3.71-9.32-8.87-3.23-3.08,54.33,17.36-1.17,1.03-.51,.45-.43,.38-12.2-2.82,10.9,3.96-9.49,8.34-7.19-2.63-6.06-3.97,3.14,4.23-8.07,4.54-17.57-14.75-6.4-5.38,4.1,2.04,11.44,5.68,12.34,.61,9.73,4.27-8.23-5.25Z" style="fill:#0a0a0a;"/><path d="M1291.34,579.29c-.14-.54-.37-1.06-.69-1.52-.16-.23-.35-.45-.55-.64l-11.31-10.97c-.41-.39-.88-.71-1.39-.92-.51-.22-1.06-.34-1.63-.36-.58-.43-1.25-.71-1.96-.83-.24-.04-.48-.06-.72-.06l-9.68-.06h-2.15s-.06-.01-.09-.01c-.09,0-.19,.01-.28,.02-.09,0-.19,0-.28,.02-.11,.01-.21,.04-.32,.06-.09,.02-.18,.03-.27,.05-.1,.03-.2,.07-.3,.1-.08,.03-.17,.05-.25,.09-.1,.04-.2,.09-.29,.14-.08,.04-.15,.07-.23,.11-.1,.06-.19,.12-.28,.19-.07,.05-.14,.09-.2,.14-.09,.07-.18,.15-.27,.23-.06,.05-.12,.1-.17,.15-.09,.09-.18,.2-.27,.3-.04,.05-.08,.09-.12,.14-.12,.16-.23,.32-.34,.49l-24.25,41.09c-5.8,9.72,.1,12.38,.1,12.38,.79,.57,1.72,.85,2.65,.85,.28,0,.57-.03,.85-.08,.28-.05,.56-.13,.83-.24,.18-.07,.36-.16,.53-.25l5.7-3.17,26.38-14.66,7.98,2.45c.2,.06,.41,.11,.61,.14,.07,.01,.13,.01,.2,.02,.14,.02,.28,.03,.42,.03,.03,0,.07,0,.1,0,.04,0,.07,0,.11,0,.18,0,.37-.02,.55-.05,.05,0,.1-.01,.15-.02,.22-.04,.44-.1,.66-.17,.05-.02,.1-.04,.15-.06,.17-.06,.34-.14,.5-.23,.06-.03,.11-.06,.17-.09,.2-.12,.4-.24,.58-.39l8.29-6.69c.28-.23,.54-.49,.75-.78,.33-.43,.57-.91,.73-1.42,.1-.34,.17-.7,.19-1.06,.01-.18,.01-.36,0-.55l-.77-13.09c-.02-.28-.06-.56-.13-.84Zm-52.99,30.19l20.38-32.78,4.33-6.96,7.77,.02,.37,3.28,.53,4.67,2.62-3.23,2.29-2.82,6.89,6.6-2.92,2.29-4.89,3.83-8.06-.23,1.72-9.8-3.34,10.36-19.41,17.36-2.28,2.04-5.99,5.36Z" style="fill:#0a0a0a;"/><path d="M821.05,617.15l-3.66-.46-18.54-2.34-4.84-.61-1.08-.14h0s-4.88-.62-4.88-.62l-.33-.04-3.83-.48-.57-.07-.17-.02h0s-3.34-.42-3.34-.42c0,0,0,0,0,0h0s0,0,0,0c-.19-.02-.39-.04-.58-.04-.03,0-.06,0-.09,0,0,0,0,0,0,0-.07,0-.14,0-.21,.02-.02,0-.05,0-.07,0-.14,.01-.28,.03-.42,.05-.01,0-.03,0-.04,0-.04,0-.09,.02-.13,.03-.04,0-.08,.02-.11,.03-.13,.03-.26,.07-.39,.11-.03,0-.06,.02-.08,.03-.02,0-.05,.02-.07,.03-.04,.02-.08,.03-.12,.05-.12,.05-.24,.11-.36,.17-.04,.02-.08,.04-.11,.06-.01,0-.03,.01-.04,.02-.03,.02-.07,.04-.1,.06-.11,.07-.22,.15-.33,.23-.04,.03-.08,.06-.12,.09-.01,0-.02,.02-.04,.03-.02,.02-.05,.03-.07,.05-.11,.09-.21,.19-.3,.29-.04,.04-.07,.07-.11,.11-.01,.02-.03,.03-.05,.05-.01,.01-.02,.02-.04,.04-.1,.12-.19,.25-.28,.37-.03,.04-.06,.08-.08,.12,0,0,0,.01-.01,.02,0,.01-.02,.02-.03,.04,0,0-.01,.01-.01,.02-.13,.2-.24,.41-.33,.63,0,0,0,0,0,0l-.43,1.01-5.07,11.89-2.11,4.94c-.12,.27-.21,.56-.27,.85-.12,.58-.13,1.17-.03,1.75,.05,.29,.13,.57,.24,.85l.55,1.39,.36,.93,3.23,8.27s0,.04,0,.06c-.03,.14-.06,.29-.07,.43-.01,.12-.02,.23-.02,.35,0,.03,0,.06,0,.09,0,0,0,0,0,0,0,.01,0,.03,0,.04,0,.14,0,.28,.02,.42,0,.02,0,.04,0,.06,.01,.13,.04,.27,.06,.4,0,0,0,0,0,0,0,.04,0,.07,.02,.11,.01,.07,.02,.14,.04,.2,0,.02,.02,.04,.02,.07,0,.02,.01,.03,.02,.05,.07,.26,.17,.51,.29,.75,.02,.05,.05,.1,.08,.14,.1,.19,.21,.37,.34,.54,.05,.06,.09,.13,.14,.19,.12,.15,.26,.29,.41,.43,.06,.06,.12,.12,.18,.17,.2,.17,.42,.33,.66,.47,0,0,.01,0,.02,.01l9.08,5.18c.08,.05,.17,.08,.26,.13,.13,.06,.25,.12,.39,.17,.15,.06,.31,.11,.46,.15,.13,.04,.27,.06,.41,.09,.03,0,.05,.01,.08,.02,.19,.03,.38,.04,.57,.05l9.8,.2,.2,.3h0s0,0,0,0l.08,.12,3.26,4.93,1.75,2.64c.87,1.32,2.32,2.04,3.8,2.04,0,0,0,0,0,0,.74,0,1.49-.18,2.18-.56l2.84-1.56,3.6-1.97,2.98-1.63,.62-.34h0s.8-.44,.8-.44l6.57-3.6,6.73-3.68,9.13-5h.02s8.09-4.44,8.09-4.44h0s3.98-2.18,3.98-2.18c0,0,0,0,.01,0,.39-.21,.73-.48,1.03-.78,.03-.03,.07-.06,.1-.1,.32-.35,.59-.74,.79-1.17,.1-.21,.18-.43,.25-.66,.13-.45,.19-.93,.18-1.41,0-.24-.03-.48-.08-.73-.02-.08-.04-.16-.06-.24-.02-.08-.04-.16-.06-.24,0,0,0,0,0,0-.06-.21-.15-.41-.24-.61-.05-.1-.1-.2-.15-.29-.03-.06-.07-.12-.11-.18-.06-.1-.13-.2-.2-.29-.05-.06-.1-.12-.15-.18-.07-.09-.14-.18-.22-.26,0,0,0,0,0,0-.14-.14-.29-.28-.44-.41-.47-.38-1.02-.66-1.61-.83h0s0,0,0,0l1.1-.39,7.72-2.75c.74-.26,1.38-.71,1.88-1.27,.17-.19,.32-.39,.45-.6,.53-.84,.78-1.86,.67-2.91-.03-.26-.08-.52-.15-.76,0-.03-.02-.06-.03-.1-.06-.18-.12-.36-.2-.53-.04-.08-.08-.15-.11-.23-.07-.13-.14-.25-.22-.38-.05-.07-.09-.14-.14-.21-.11-.15-.23-.29-.36-.43-.02-.02-.04-.05-.06-.07-.17-.18-.36-.34-.57-.49-.4-.29-.86-.52-1.35-.67-.25-.07-.5-.13-.76-.16l-14.51-1.83-5.65-.71-5.65-.71h0l-11.4-1.44h-.02Zm4.21,7.42l11.3,1.22h0s5.6,.6,5.6,.6l5.6,.6,2.28,.25-1.82,.54-4.49,1.33-4.49,1.33h0l-9.09,2.7h-.02s-7.38,2.2-7.38,2.2l-1.36-.3-.96-.21-11.21-2.49-.33,.05-5.6,.86-.94,.14h0l-3.08,.48-.78,.12h.85s3.3,0,3.3,0h1.01s6.16,.01,6.16,.01h.49s12.4,4.74,12.4,4.74l.44,.17,10.34,.03h.02s1.63,0,1.63,0l5.16,.02-4.08,1.15-1.74,.49h-.01s-9.83,2.77-9.83,2.77l-8.13,2.28-6.37,1.79-.89,.25h0s-.26,.07-.26,.07l-6.18-8.24,1.95-1.11h0s.79-.45,.79-.45l2.37-1.35-2.79,.46-.93,.16h0l-2.75,.46-1.46,.24h-.02s-4.65-.3-4.65-.3h0l-3.84-.25-5.92-12.74,3.77,.25h0s4.69,.31,4.69,.31l.45,.03,3.96,.26-4.27-.81-.43-.08-5-.95h0s-3.99-.76-3.99-.76l-.6-1.3-.72-1.55,3.75,.4h0l4.81,.52h.13s4.66,.52,4.66,.52h0s1.06,.11,1.06,.11l5.33,.57,15.3,1.64,6.75,.73h.03Z" style="fill:#0a0a0a;"/><path d="M884.48,582.54c-.41,3.51,1.69,6.03,3.28,8.02,1.86,2.34-13.23,11.57-13.23,11.57,0,0,21.2-6.59,31.36-5.14,23.26,3.33,41.2-6.59,41.2-6.59-29.99,5.48-23.46-9.97-37.38-18.58-13.92-8.61-24.82,1.25-37.38,5.52,5.51-.25,12.94-1.44,12.14,5.21Zm23.82-5.51c-3.77,4.12-6.25,12.07,1.41,13.99-8.63,1.92-16.83,.18-17.45-9.13-.65-9.82,12.27-8.8,16.04-4.85Z" style="fill:#0a0a0a;"/></g><g><polygon points="1285.24 582.99 1282.67 585.04 1278.1 588.67 1279.89 593.98 1279.92 594.05 1279.87 593.99 1276.48 589.25 1268.43 589.01 1253.72 600.8 1239.42 612.27 1269.68 594.94 1278.73 597.38 1286.25 591.01 1285.24 582.99" style="fill:#e40429;"/><path d="M1178.33,635.54l.06-.19-1.78-.54c-4.05,1.04-8.24,1.8-12.57,2.23,.58,1.15,1.3,2.4,2.15,3.62l14.65,4.48,76.84,23.47,3.77-2.28,6.16-3.73-19.67-6.01-69.62-21.05Z" style="fill:#e40429;"/><path d="M1129.39,623.52h0c4.54,.56,8.96,.86,13.25,.92h-.02c-4.28-.06-8.69-.37-13.22-.92Z" style="fill:#e40429;"/><polygon points="782.2 626.21 780.72 628 777.65 631.69 777.49 631.88 777.97 630.93 780.11 626.73 781.33 624.33 781.04 623.73 779.52 620.44 778.33 623.1 773.23 634.47 775.18 639.45 777.5 636.92 782.42 631.56 783.36 630.53 782.79 632.34 779.61 642.32 778.23 646.66 783.33 649.57 784.26 647.11 786.69 640.7 787.7 638.05 782.2 626.21" style="fill:#e40429;"/><polygon points="805.74 659.12 809.4 657.28 811.98 655.98 813.05 655.44 813.05 655.44 813.86 655.03 820.13 651.87 827.06 648.38 836.3 643.73 836.31 643.72 840.6 641.56 835.92 643.05 835.91 643.06 825.97 646.23 823.82 646.92 818.27 648.69 811.77 650.77 810.9 651.05 810.9 651.05 809.39 651.53 807.55 652.12 805.35 649.03 801 642.94 799.53 646.42 799.53 646.42 798.72 648.32 798.46 644.2 798.46 644.2 798.26 641.22 797.01 641.2 797.01 641.2 790.5 641.09 788.9 645.33 787.77 648.3 787 650.33 791.33 650.37 798.23 650.45 804.41 659.79 805.74 659.12" style="fill:#e40429;"/><polygon points="1251.15 688.42 1250.63 688.87 1250.14 689.3 1248.25 690.96 1248.67 698.55 1246.85 692.19 1238.05 699.93 1237.53 709.62 1237.46 710.99 1242.7 710.44 1242.85 709.07 1244.33 695.32 1247.46 704.53 1247.83 705.62 1251.23 702.23 1251.15 689.03 1251.15 688.42" style="fill:#e40429;"/><polygon points="1225.25 704.38 1225.33 699.13 1216.61 704.31 1207.52 695.99 1191.59 681.44 1216.42 711.76 1224.89 706.31 1234.17 710.28 1234.27 708.38 1234.64 701.42 1228.21 698.71 1225.25 704.38" style="fill:#e40429;"/><path d="M977.4,644.35l-69.98,36.68-20.06,10.51-4.05,2.12-4.05,2.12h0s-8.17,4.28-8.17,4.28h-.02s-5.15,2.71-5.15,2.71l-10.95,5.74-6.15,3.22c-.14,.58-.35,1.73-.38,3.44-.02,1.03,.03,2.26,.2,3.69l1.65-.85,8.13-4.19,16.18-8.34h.02s8.2-4.24,8.2-4.24h0s4.07-2.1,4.07-2.1l4.07-2.1,1.58-.81,44.19-22.78,56.43-29.08,6.61-3.41v-8.36l-14.03,7.35-8.33,4.37Z" style="fill:#e40429;"/><path d="M850.22,774.59c-17.36,2.81-38.34,1.9-49.3-.38v3.77c17.72,3.27,50.32,2.85,65.95-5.21v-2.74c-4.34,1.93-9.64,3.35-15.38,4.35-.42,.07-.84,.14-1.27,.21Z" style="fill:#e40429;"/><path d="M827.54,765.27c13.72-.29,27.77-1.83,36.09-4.72-1.97-2.33-4.6-5.62-7.36-9.55-15.34,4.03-40.5,5-55.62,2.12-.35,3.41-.49,6.99-.35,10.78,7.3,1.11,17.18,1.58,27.24,1.37Z" style="fill:#e40429;"/><path d="M803.9,737.74c-1.05,3.21-1.94,6.66-2.57,10.37,7.22,.99,16.37,1.37,25.63,1.18,9.46-.2,18.98-.99,26.59-2.33-2.03-3.16-4.02-6.6-5.75-10.19-13.73,2.31-31.36,2.71-43.89,.97Z" style="fill:#e40429;"/></g></svg>